<svg width="32" height="32" viewBox="0 0 32 32" fill="none" xmlns="http://www.w3.org/2000/svg">
<path d="M19.6268 11.72L13.9068 17.4533L11.7068 15.2533C11.5872 15.1137 11.4401 15.0004 11.2747 14.9203C11.1093 14.8403 10.9291 14.7953 10.7455 14.7882C10.5619 14.7811 10.3788 14.8121 10.2077 14.8791C10.0366 14.9461 9.88116 15.0478 9.75122 15.1778C9.62128 15.3077 9.5196 15.4631 9.45257 15.6342C9.38554 15.8053 9.3546 15.9884 9.36169 16.172C9.36878 16.3557 9.41376 16.5358 9.49379 16.7013C9.57382 16.8667 9.68718 17.0138 9.82675 17.1333L12.9601 20.28C13.0847 20.4035 13.2324 20.5013 13.3949 20.5677C13.5573 20.634 13.7313 20.6676 13.9068 20.6666C14.2565 20.6652 14.5917 20.5263 14.8401 20.28L21.5068 13.6133C21.6317 13.4893 21.7309 13.3419 21.7986 13.1794C21.8663 13.0169 21.9012 12.8426 21.9012 12.6666C21.9012 12.4906 21.8663 12.3163 21.7986 12.1539C21.7309 11.9914 21.6317 11.8439 21.5068 11.72C21.2569 11.4716 20.919 11.3322 20.5668 11.3322C20.2145 11.3322 19.8766 11.4716 19.6268 11.72ZM16.0001 2.66663C13.363 2.66663 10.7851 3.44861 8.59248 4.9137C6.39983 6.37878 4.69086 8.46116 3.68169 10.8975C2.67253 13.3339 2.40848 16.0147 2.92295 18.6012C3.43742 21.1876 4.7073 23.5633 6.572 25.428C8.4367 27.2927 10.8125 28.5626 13.3989 29.0771C15.9853 29.5916 18.6662 29.3275 21.1025 28.3184C23.5389 27.3092 25.6213 25.6002 27.0863 23.4076C28.5514 21.2149 29.3334 18.637 29.3334 16C29.3334 14.249 28.9885 12.5152 28.3185 10.8975C27.6484 9.27984 26.6663 7.80998 25.4282 6.57187C24.1901 5.33375 22.7202 4.35163 21.1025 3.68157C19.4849 3.0115 17.751 2.66663 16.0001 2.66663V2.66663ZM16.0001 26.6666C13.8904 26.6666 11.8281 26.041 10.074 24.869C8.31988 23.6969 6.95271 22.031 6.14537 20.0819C5.33804 18.1328 5.1268 15.9881 5.53838 13.919C5.94995 11.8499 6.96585 9.94925 8.45762 8.45749C9.94938 6.96573 11.85 5.94983 13.9191 5.53825C15.9883 5.12667 18.133 5.33791 20.082 6.14524C22.0311 6.95258 23.697 8.31975 24.8691 10.0739C26.0412 11.828 26.6668 13.8903 26.6668 16C26.6668 18.8289 25.5429 21.542 23.5426 23.5424C21.5422 25.5428 18.8291 26.6666 16.0001 26.6666V26.6666Z" fill="white"/>
</svg>
